<svg width="49" height="49" viewBox="0 0 49 49" fill="none" xmlns="http://www.w3.org/2000/svg">
<path d="M9.27503 24.3298C9.27503 19.6948 11.5097 15.5685 14.9804 12.9121L9.66829 4.6333C5.21643 7.74662 1.86654 12.2527 0.286133 17.4981C2.76021 19.0486 4.40093 21.7578 4.40093 24.837C4.40093 27.8069 2.88447 30.4253 0.556632 32.0014C2.2558 36.97 5.56698 41.2233 9.88621 44.1751L14.8265 35.6196C11.4415 32.9641 9.27503 28.8929 9.27503 24.3298Z" fill="#D64613"/>
<path d="M38.0801 40.0073C39.579 40.0073 40.99 40.3643 42.23 40.9982C46.0919 37.0351 48.5874 31.8058 49.0001 26.0137L38.9909 25.8251C38.2202 33.1346 31.8783 38.8291 24.17 38.8291C22.0365 38.8291 20.0004 38.392 18.163 37.6018L13.1875 46.0778C16.5044 47.6669 20.228 48.5597 24.1699 48.5597C25.8711 48.5597 27.5394 48.392 29.147 48.0726C29.49 43.5647 33.3578 40.0073 38.0801 40.0073Z" fill="#D64613"/>
<path d="M42.9153 8.39453C41.457 9.40004 39.6723 9.99515 37.7452 9.99515C32.7952 9.99515 28.7873 6.09155 28.7873 1.27462C28.7873 1.01878 28.799 0.771322 28.8185 0.523015C27.3136 0.242485 25.7585 0.0985107 24.1701 0.0985107C20.1914 0.0985107 16.4288 1.01027 13.0942 2.62499L18.0405 11.1066C19.9112 10.286 21.986 9.82442 24.1701 9.82442C31.8101 9.82442 38.1072 15.427 38.9677 22.6427L48.9768 22.3452C48.5348 17.0242 46.3216 12.1909 42.9153 8.39453Z" fill="#D64613"/>
</svg>
